=========================
Hannah Montana The Movie
=========================

Torrent Name:

Hannah Montana The Movie - DVDrip - AVIdeo - SlskUser


Part Musical
- with popular songs of 2009, such as, "The Climb" and "Crazier"

Starring:

Mylie Cyrus as Hannah Montana


----------------
Technical INFO:
----------------

3 Files:
_ Hannah Montana The Movie - Miley Cyrus - 2009.avi
_ hannah_montana_the_movie_2009_retail_cd-front.jpg
  this file below:
_ Hannah Montana The Movie - Miley Cyrus - 2009_avi_INFO_TEXT.txt

.....................................................................

..Hannah Montana The Movie - Miley Cyrus - 2009.avi
Format                           : AVI
Format/Info                      : Audio Video Interleave
File size                        : 700 MiB
Duration                         : 1h 42mn
Overall bit rate                 : 956 Kbps
Writing application              : VirtualDubMod 1.5.10.2 (build 2540/release)
Writing library                  : VirtualDubMod build 2540/release

Video
Format                           : MPEG-4 Visual
Format profile                   : Streaming Video@L1
Format settings, BVOP            : Yes
Format settings, QPel            : No
Format settings, GMC             : No warppoints
Format settings, Matrix          : Default
Muxing mode                      : Packed bitstream
Codec ID                         : DX50
Codec ID/Hint                    : DivX 5
Duration                         : 1h 42mn
Bit rate                         : 819 Kbps
Width                            : 608 pixels
Height                           : 320 pixels
Display aspect ratio             : 1.900
Frame rate                       : 23.976 fps
Resolution                       : 24 bits
Colorimetry                      : 4:2:0
Scan type                        : Progressive
Bits/(Pixel*Frame)               : 0.175
Stream size                      : 599 MiB (86%)
Writing library                  : XviD 1.2.0.dev47 (UTC 2006-11-01)

Audio
Format                           : MPEG Audio
Format version                   : Version 1
Format profile                   : Layer 3
Codec ID                         : 55
Codec ID/Hint                    : MP3
Duration                         : 1h 42mn
Bit rate mode                    : Constant
Bit rate                         : 128 Kbps
Channel(s)                       : 2 channels
Sampling rate                    : 48.0 KHz
Resolution                       : 16 bits
Stream size                      : 93.7 MiB (13%)
Alignment                        : Aligned on interleaves
Interleave, duration             : 42 ms (1.00 video frame)
Interleave, preload duration     : 504 ms

